<?xml version="1.0" encoding="UTF-8"?>
<svg id="Layer_1" data-name="Layer 1" xmlns="http://www.w3.org/2000/svg" version="1.1" viewBox="0 0 489 70">
  <defs>
    <style>
      .cls-1 {
        fill: #000;
        stroke-width: 0px;
      }
    </style>
  </defs>
  <path class="cls-1" d="M89.2,11.6c6.1,0,12-.5,17.8.1,7.4.9,11.7,5.2,12.4,11.4.6,4.9-1.5,10.9-8.5,14.2,3.8,6.4,7.6,12.8,11.6,19.6-3.5,0-6.5,0-9.5,0-.5,0-1.1-.6-1.4-1.1-2.4-4.4-4.8-8.8-7.1-13.2-2-3.7-1.9-3.7-6.5-3.4v17.6h-8.8V11.6ZM98.2,18.9v11.6c2.6,0,5,.2,7.3,0,2.9-.3,5-2.8,5-5.5,0-2.6-1.7-4.8-4.6-5.3-2.5-.4-5-.5-7.7-.7Z"/>
  <path class="cls-1" d="M235.7,11.2h8.7v18.2h14.8V11.4h9v45.4h-8.9v-19.1h-14.7v19.1h-8.8V11.2Z"/>
  <path class="cls-1" d="M446.1,29.6h19.8v7.8h-19.8v11.5h21.7v7.8h-30.7V11.3h30.6v7.7h-21.7v10.5Z"/>
  <path class="cls-1" d="M54.7,56.9h-10.1c-1-3-2.2-6.1-3.1-9.3-.5-1.8-1.3-2.3-3.1-2.2-3.1.1-6.2.1-9.2,0-1.5,0-2.4.4-2.8,2-.8,2.7-1.9,5.4-3,8.1-.3.7-1.1,1.5-1.8,1.5-2.8.2-5.6,0-9,0,.8-2.2,1.6-4.2,2.3-6.1,4.9-12.7,9.8-25.3,14.8-37.9.3-.7,1.5-1.6,2.3-1.6,6.7-.4,6.7-.4,9,6,4.4,12.5,8.7,25,13.1,37.5.2.7.4,1.3.6,2.1ZM34.2,25c-1.6,4.2-3,8-4.4,11.9h8.4c-1.3-4-2.6-7.7-4-11.9Z"/>
  <path class="cls-1" d="M364.4,11.3h9.4c2.9,10.2,5.8,20.6,9,31.6,1.9-6.6,3.6-12.4,5.3-18.3,1.2-4,2.3-8,3.5-12,.2-.6,1-1.3,1.6-1.3,2.6-.1,5.1,0,8,0-1.4,4.9-2.8,9.6-4.2,14.3-2.8,9.9-5.7,19.7-8.5,29.6-.4,1.4-1,1.9-2.4,1.8-2.8-.1-6.3.9-8.3-.5-1.8-1.2-1.9-4.8-2.7-7.4-3.5-11.8-7-23.6-10.4-35.5-.2-.7-.3-1.4-.5-2.4Z"/>
  <path class="cls-1" d="M197.6,19.9c-2.4.9-4.7,1.8-7,2.5-.6.2-1.7-.2-2.1-.7-2.6-3.2-5.9-4.5-9.9-3.4-4.3,1.2-6.1,4.7-6.9,8.6-1.2,5.6-.9,11.3,1.3,16.7,1.4,3.5,3.8,5.8,7.6,6.3,3.6.5,6-1.5,7.7-4.4.9-1.5,1.8-1.8,3.4-1.1,2,.9,4.1,1.6,6.2,2.4-1.8,6.3-8,10.9-14.4,11.1-6.2.2-11.6-1-15.9-5.9-3-3.4-4.5-7.5-5.3-11.8-1.1-6.2-.8-12.4,1.4-18.4,3-8,9.1-11.7,17.3-12.1,6.6-.4,13.3,2.8,16.8,10.1Z"/>
  <path class="cls-1" d="M310.2,11.3h8.7v45.5h-8.7V11.3Z"/>
</svg>