<?xml version="1.0" encoding="UTF-8"?>
<svg id="Layer_1" data-name="Layer 1" xmlns="http://www.w3.org/2000/svg" version="1.1" viewBox="0 0 489 70">
  <defs>
    <style>
      .cls-1 {
        fill: #eae0d5;
        stroke-width: 0px;
      }
    </style>
  </defs>
  <path class="cls-1" d="M111,37.4c3.8,6.4,7.6,12.8,11.6,19.5-3.3,0-6.2,0-9.1,0-.6,0-1.5-.7-1.8-1.3-2.5-4.5-4.9-9-7.3-13.5-1.9-3.5-1.8-3.5-6.3-2.9v17.5h-8.8V11.2c6.8.4,13.7-1,20.4,1.1,5.6,1.7,8.9,5.5,9.7,11.3.7,5.3-2.2,10.3-7.4,13.2-.4.2-.7.4-1.1.7ZM98.1,31c2.7-.2,5.2-.2,7.6-.6,2.8-.5,4.7-2.8,4.8-5.5,0-2.6-1.7-4.8-4.6-5.3-2.5-.5-5.1-.5-7.8-.7v12Z"/>
  <path class="cls-1" d="M244.6,56.8h-8.8V11.3h8.6v18.1h14.9V11.3h8.9v45.4h-8.8v-19h-14.8v19.1Z"/>
  <path class="cls-1" d="M437,56.8V11.4h30.8v7.7h-21.7v10.4h19.8v8h-19.8v11.4h21.7v7.9h-30.8Z"/>
  <path class="cls-1" d="M12.7,56.9c2.2-5.6,4.1-10.7,6.1-15.8,3.6-9.3,7.2-18.6,10.8-28,.5-1.4,1.3-2,2.9-2,6.4,0,6.4,0,8.5,5.8,4.4,12.7,8.9,25.4,13.3,38.1.2.5.3,1.1.5,1.8h-10c-1-3-2.2-6.1-3.1-9.3-.5-1.6-1.1-2.3-2.9-2.2-3.2.1-6.3.1-9.5,0-1.6,0-2.3.5-2.8,2.1-.8,2.7-1.9,5.4-3,8.1-.3.6-1.2,1.4-1.8,1.5-2.8.2-5.6,0-9,0ZM38.2,36.9c-1.3-4-2.6-7.7-4-11.9-1.6,4.2-3,7.9-4.5,11.9h8.5Z"/>
  <path class="cls-1" d="M364.5,11.3h9.3c1.5,5.2,2.9,10.4,4.3,15.6,1.5,5.2,3,10.4,4.6,16,2.8-9.8,5.6-19.2,8.2-28.6.7-2.5,1.6-3.4,4.2-3.1,1.9.2,3.8,0,6.1,0-1.4,4.9-2.8,9.6-4.1,14.3-2.8,9.8-5.7,19.6-8.4,29.5-.5,1.7-1.2,2.1-2.7,2-2.2,0-4.3-.1-6.5,0-1.5,0-2-.5-2.4-1.8-4.1-14-8.2-28-12.3-41.9-.2-.5-.1-1.1-.2-2Z"/>
  <path class="cls-1" d="M197.5,19.9c-1.1.4-2.1.8-3.1,1.2-3.1,1.3-5.5,1.9-8.3-1.3-3.1-3.6-9.8-2-12.4,2.3-2.9,4.7-3.2,10-2.4,15.3.5,3,1.5,6.1,3,8.7,3.3,5.4,9.9,5.4,13.4,0,1.3-2,2.5-2.4,4.6-1.4,1.7.9,3.6,1.5,5.5,2.2-2.1,6.8-9.1,10.9-15.3,11.2-13,.5-19.2-9.2-20.5-19.3-.7-5.8-.4-11.3,1.6-16.7,2.9-8.1,9.2-11.8,17.5-12.2,6.3-.3,13,2.6,16.5,10.1Z"/>
  <path class="cls-1" d="M310.1,56.8V11.3h8.8v45.5h-8.8Z"/>
</svg>